<svg xmlns="http://www.w3.org/2000/svg" viewBox="0 0 32 26"><g fill="#27ae60"><path d="M14 16.6h-1a1.27 1.27 0 0 0-.72 1.14v.36a1.82 1.82 0 0 0 2.53 0v-.36a1.27 1.27 0 0 0-.81-1.14z"/><circle cx="13.51" cy="16.06" r=".74" transform="matrix(.88 -.47 .47 .88 -5.98 8.27)"/></g><g fill="#182c61"><path d="M21.15,12.93H11.08a.14.14,0,0,0-.14.14v7.73a.14.14,0,0,0,.14.14H21.15a.14.14,0,0,0,.14-.14h0V13.07a.14.14,0,0,0-.14-.14ZM21,20.66H11.22V13.22H21Z"/><path d="M21.15,14h-10a.14.14,0,1,0,0,.29h10a.14.14,0,1,0,0-.29Z"/><path d="M18.87 12.93a.14.14 0 0 0-.14.14h0v1.05a.145.145 0 1 0 .29 0h0v-1.05a.14.14 0 0 0-.14-.14zm-7.05.54h-.15a.145.145 0 1 0 0 .29h.15a.145.145 0 1 0 0-.29zm.85 0h-.15a.145.145 0 0 0 0 .29h.15a.145.145 0 0 0 0-.29zm.83 0h-.15a.145.145 0 1 0 0 .29h.15a.145.145 0 0 0 0-.29zm0 1.18a2 2 0 1 0 2 2 2 2 0 0 0-2-2zm0 3.8a1.76 1.76 0 1 1 1.76-1.76 1.76 1.76 0 0 1-1.76 1.77z"/><path d="M12.9 16.46a1.42 1.42 0 0 0-.81 1.27v.36a.145.145 0 1 0 .29 0h0v-.36a1.13 1.13 0 0 1 .64-1 .143.143 0 1 0-.12-.26h0zm1.2 0a.143.143 0 0 0-.12.26 1.13 1.13 0 0 1 .65 1v.36a.145.145 0 0 0 .29 0h0v-.36a1.41 1.41 0 0 0-.82-1.26z"/><path d="M13.5 15.17a.88.88 0 1 0 .88.88.88.88 0 0 0-.88-.88zm0 1.47a.59.59 0 1 1 .59-.59.59.59 0 0 1-.59.6zm3.7-1.72H16a.145.145 0 0 0 0 .29h1.2a.145.145 0 1 0 0-.29z"/><path d="M20.4 14.92H18a.145.145 0 1 0 0 .29h2.4a.145.145 0 0 0 0-.29zm-2.4.94h-2a.145.145 0 0 0 0 .29h2a.145.145 0 0 0 0-.29z"/><path d="M20.4 15.86h-1.55a.145.145 0 1 0 0 .29h1.55a.145.145 0 0 0 0-.29zm-3.2.94H16a.145.145 0 0 0 0 .29h1.2a.145.145 0 1 0 0-.29zm3.2 0H18a.145.145 0 1 0 0 .29h2.4a.145.145 0 0 0 0-.29zm0 1.53h-.5a.145.145 0 0 0 0 .29h.35v1.47h-3a.145.145 0 0 0 0 .29h3.1a.14.14 0 0 0 .14-.14v-1.77a.14.14 0 0 0-.14-.14zm-2.02 0h-3.15a.14.14 0 0 0-.14.14v1.76a.14.14 0 0 0 .14.14h1a.145.145 0 0 0 0-.29h-.8V18.6h3a.145.145 0 0 0 0-.29zm3.55-5.4a.14.14 0 0 0-.14.14v8.28H11.15a.145.145 0 1 0 0 .29h10.78a.14.14 0 0 0 .14-.14v-8.43a.14.14 0 0 0-.14-.14z"/></g><g fill="#4a91d6"><circle cx="3.99" cy="10.48" r="1.03"/><path d="M20.3 7.84l1.34-1.34L20.2 5l-1.36 1.4a4.5 4.5 0 0 0-1.33-.55v-1.9h-2.06v1.9a4.5 4.5 0 0 0-1.33.55L12.75 5 11.3 6.5l1.34 1.34a4.51 4.51 0 0 0-.57 1.34h-1.88v1.06h3.7a2.59 2.59 0 1 1 5.19 0h3.7V9.18h-1.88a4.5 4.5 0 0 0-.57-1.34z"/></g><path d="M8.9.9H2.14a.73.73 0 0 0-.73.73v.82h8.22v-.82A.73.73 0 0 0 8.9.89zM1.4 14.08a.69.69 0 0 0 .69.69h6.86a.69.69 0 0 0 .69-.69h0v-1.2H1.4z" fill="#27ae60"/><path d="M6,13.33H5a.43.43,0,0,0-.43.43h0a.43.43,0,0,0,.43.43H6a.43.43,0,0,0,.43-.43h0A.43.43,0,0,0,6,13.33Z" fill="#e1e1e5"/><g fill="#182c61"><path d="M27.9 2a.207.207 0 0 0 .11.4h0a.207.207 0 1 0-.11-.4h0zm1.28-.5h0a.191.191 0 1 0 .27-.27h0a.191.191 0 0 0-.27.27z"/><path d="M28.13 1.34a.19.19 0 1 0 .06.26h0a.19.19 0 0 0-.06-.26zm.94 1.14a.19.19 0 0 0 .1.35.19.19 0 0 0 .1 0 .19.19 0 0 0-.2-.32zm.5-.64a.19.19 0 0 0 0 .38h0a.19.19 0 0 0 0-.38zm-1.06.7a.191.191 0 0 0-.13.36h.06a.19.19 0 0 0 .06-.37zm.1-1.62a.19.19 0 0 0 0 .38h0a.19.19 0 0 0 0-.38zM26.2 6.2a.19.19 0 0 0 .06.37h.06a.191.191 0 0 0-.13-.36zm.64.5a.191.191 0 0 0-.13.36h.06a.19.19 0 0 0 .06-.37zm.66-1.04a.191.191 0 0 0 .27-.27h0a.191.191 0 0 0-.27.27z"/><path d="M26.45 5.5a.19.19 0 1 0 .06.26.19.19 0 0 0-.06-.26zm.48-.4a.19.19 0 0 0 0 .38h0a.19.19 0 1 0 0-.38zm.97.9a.19.19 0 0 0 0 .38h0a.19.19 0 0 0 0-.38zm-.5.65a.19.19 0 0 0 .1.35.19.19 0 0 0 .1 0 .19.19 0 1 0-.2-.32h0zm1.3 15.17a.19.19 0 1 0 .24.12.19.19 0 0 0-.24-.12zm1.3-.54h0a.191.191 0 0 0 .28-.26h0a.191.191 0 0 0-.27.27z"/><path d="M28.94 21.13a.19.19 0 1 0 .06.26h0a.19.19 0 0 0-.06-.26zm.48-.43a.19.19 0 0 0 0 .38h0a.19.19 0 0 0 0-.38h0zm-.1 1.63a.191.191 0 1 0-.13.36h.06a.19.19 0 0 0 .06-.37zm1.05-.7a.192.192 0 0 0-.05.38h0a.192.192 0 0 0 .05-.38zm-.5.64a.19.19 0 0 0 .1.35.19.19 0 0 0 .1 0 .19.19 0 0 0-.2-.32h0zm-8.34-18.1a.19.19 0 1 0 .24.12h0a.19.19 0 0 0-.24-.12zm1.3-.54a.191.191 0 0 0 .27-.27h0a.191.191 0 0 0-.27.27zm.4.37a.19.19 0 0 0 0 .38h0a.19.19 0 0 0 0-.38z"/><path d="M21.78 3.48a.19.19 0 1 0 .06.26h0a.19.19 0 0 0-.06-.26zm.94 1.14a.19.19 0 0 0 .1.35.19.19 0 0 0 .1 0 .193.193 0 1 0-.2-.33h0zm-.55.06h0a.19.19 0 1 0 .12.24h0a.19.19 0 0 0-.12-.24h0zm.1-1.6a.19.19 0 0 0 0 .38h0a.19.19 0 0 0 0-.38h0zm-9.42-.54a.19.19 0 1 0 .24.12h0a.19.19 0 0 0-.24-.12zm1.3-.53h0a.191.191 0 0 0 .27-.27h0a.191.191 0 0 0-.27.27z"/><path d="M13.48 3a.19.19 0 1 0 .12.24.19.19 0 0 0-.12-.24zm-.38-1.17a.19.19 0 1 0 .06.26h0a.19.19 0 0 0-.06-.26zm.47-.4a.19.19 0 0 0 0 .38h0a.19.19 0 0 0 0-.38h0zm.96.92a.19.19 0 0 0 0 .38h0a.19.19 0 0 0 0-.38zM14 3a.19.19 0 0 0 .1.35.19.19 0 0 0 .1 0A.202.202 0 0 0 14 3zM2.26 16.07a.19.19 0 1 0 .06.26h0a.19.19 0 0 0-.06-.26zm1.04.15h0a.19.19 0 1 0 .28-.22h0a.191.191 0 0 0-.27.27zm-.65 1.06a.191.191 0 1 0-.13.36h.06a.19.19 0 0 0 .06-.37z"/><path d="M2 16.77a.19.19 0 1 0 .24.12h0a.19.19 0 0 0-.24-.12zm1.7-.2a.19.19 0 0 0 0 .38h0a.19.19 0 0 0 0-.38zm-.96-.92a.19.19 0 0 0 0 .38h0a.19.19 0 0 0 0-.38zm.46 1.54h0a.19.19 0 0 0 .1.35.19.19 0 0 0 .1 0 .19.19 0 0 0-.2-.32h0zM30.5 5.86a.14.14 0 0 0-.14.14h0v.92a.145.145 0 0 0 .29 0h0V6a.14.14 0 0 0-.15-.14z"/><path d="M31 6.33h-1a.145.145 0 0 0 0 .29h1a.145.145 0 0 0 0-.29zm-14.1-5a.14.14 0 0 0-.14.14h0v.92a.145.145 0 1 0 .29 0h0v-.9a.14.14 0 0 0-.15-.15z"/><path d="M17.37 1.8h-.92a.145.145 0 0 0 0 .29h.92a.145.145 0 1 0 0-.29zM3 20.65a.14.14 0 0 0-.14.14v.92a.145.145 0 1 0 .29 0v-.9a.14.14 0 0 0-.15-.15z"/><path d="M3.43 21.12H2.5a.145.145 0 1 0 0 .29h.92a.145.145 0 1 0 0-.29zM23.2 6.95a.14.14 0 0 0-.14.14h0V8a.145.145 0 1 0 .29 0h0v-.9a.14.14 0 0 0-.15-.14z"/><path d="M23.68 7.42h-.92a.145.145 0 1 0 0 .29h.92a.145.145 0 1 0 0-.29zm5.42 5.75a.14.14 0 0 0-.14.14h0v.92a.145.145 0 1 0 .29 0h0v-.92a.14.14 0 0 0-.14-.14z"/><path d="M29.56 13.64h-.92a.145.145 0 1 0 0 .29h.92a.145.145 0 1 0 0-.29zm.44 4.14a.14.14 0 0 0-.14.14h0v.92a.145.145 0 0 0 .29 0v-.92a.14.14 0 0 0-.15-.14z"/><path d="M30.5 18.25h-.92a.145.145 0 1 0 0 .29h.92a.145.145 0 1 0 0-.29zm-1.27 5.53H3a.14.14 0 0 0-.14.14h0v.47a1.11 1.11 0 0 0 1.09 1.11h24.3a1.11 1.11 0 0 0 1.11-1.11v-.47a.14.14 0 0 0-.14-.14zm-.14.6a.84.84 0 0 1-.84.84H3.95a.84.84 0 0 1-.84-.84v-.33h26z"/><path d="M17.95 23.82a.14.14 0 0 0-.14.14h0v.55h-3.45V24a.14.14 0 0 0-.27 0v.7a.14.14 0 0 0 .14.14h3.73a.14.14 0 0 0 .14-.14h0V24a.14.14 0 0 0-.14-.14zm9.27-13.38a1.22 1.22 0 0 0-.85-.33H9.76a.14.14 0 1 0 0 .27h16.62a.9.9 0 0 1 .93.87v12.5a.14.14 0 1 0 .27 0h0V11.27a1.13 1.13 0 0 0-.36-.83zm-22.5 4.32a.14.14 0 0 0-.14.14h0v9a.14.14 0 1 0 .27 0h0v-9a.14.14 0 0 0-.13-.14zM26 11.6H9.8a.14.14 0 1 0 0 .27h16v10.7H6.4v-7.64a.14.14 0 1 0-.27 0h0v7.78a.14.14 0 0 0 .14.14H26a.14.14 0 0 0 .14-.14h0v-11a.14.14 0 0 0-.14-.14z"/><path d="M3.95 25.24h-2.8a.14.14 0 0 0 0 .27h2.8a.14.14 0 1 0 0-.27zm26.85 0h-2.54a.14.14 0 0 0 0 .27h2.54a.14.14 0 0 0 0-.27zM22.76 9H21a4.63 4.63 0 0 0-.5-1.18l1.25-1.22a.14.14 0 0 0 0-.2h0L20.3 4.94a.14.14 0 0 0-.2 0L18.8 6.2a4.64 4.64 0 0 0-1.17-.48v-1.8a.14.14 0 0 0-.14-.14h-2.06a.14.14 0 0 0-.14.14v1.8a4.64 4.64 0 0 0-1.17.48l-1.28-1.27a.14.14 0 0 0-.2 0L11.2 6.4a.14.14 0 0 0 0 .2l1.26 1.26A4.64 4.64 0 0 0 12 9h-1.82a.14.14 0 0 0-.14.14v1.06a.14.14 0 0 0 .14.14h3.7a.14.14 0 0 0 .14-.14 2.45 2.45 0 0 1 4.9 0 .14.14 0 0 0 .14.14h3.7a.14.14 0 0 0 .14-.14V9.18a.14.14 0 0 0-.12-.18zm-.14 1.06H19.2a2.74 2.74 0 0 0-5.47 0h-3.4v-.73h1.74a.14.14 0 0 0 .14-.11 4.35 4.35 0 0 1 .55-1.3.14.14 0 0 0 0-.18L11.5 6.5l1.25-1.25L14 6.5a.14.14 0 0 0 .18 0 4.35 4.35 0 0 1 1.29-.5.14.14 0 0 0 .11-.14v-1.8h1.77v1.77a.14.14 0 0 0 .11.14 4.35 4.35 0 0 1 1.29.53.14.14 0 0 0 .18 0l1.25-1.25 1.26 1.24-1.24 1.24a.14.14 0 0 0 0 .18 4.35 4.35 0 0 1 .55 1.3.14.14 0 0 0 .14.11h1.74zM8.88.75h-6.7a.9.9 0 0 0-.9.9V14a.9.9 0 0 0 .9.9h6.7a.9.9 0 0 0 .9-.9V1.65a.9.9 0 0 0-.89-.9zM9.5 14a.63.63 0 0 1-.63.63h-6.7a.63.63 0 0 1-.63-.63V1.65A.63.63 0 0 1 2.17 1h6.7a.63.63 0 0 1 .63.63z"/><path d="M9.64 2.3H1.5a.14.14 0 0 0 0 .27h8.13a.14.14 0 0 0 0-.27zm0 10.43H1.5a.14.14 0 0 0 0 .27h8.13a.14.14 0 0 0 0-.27zM6.67 1.53h-2.2a.14.14 0 0 0 0 .27h2.2a.14.14 0 0 0 0-.27zM6 13.2H5a.57.57 0 0 0 0 1.13h1a.57.57 0 1 0 0-1.13zm0 .86H5a.3.3 0 1 1 0-.59h1a.3.3 0 1 1 0 .59zM8.75 3.2H2.32a.14.14 0 0 0-.14.14h0V6.7a.14.14 0 0 0 .14.14h6.43a.14.14 0 0 0 .14-.14h0V3.32a.14.14 0 0 0-.14-.14zm-.13 3.37H2.46v-3.1h6.16zM5.52 4H3a.14.14 0 1 0 0 .27h2.52a.14.14 0 1 0 0-.27zm2.64 0h-1.5a.14.14 0 1 0 0 .27h1.5a.14.14 0 0 0 0-.27zm-4.33.94H3a.14.14 0 1 0 0 .27h.88a.14.14 0 1 0 0-.27zm4.33 0H4.48a.14.14 0 0 0 0 .27h3.68a.14.14 0 0 0 0-.27zm-2.64.98H3a.14.14 0 1 0 0 .28h2.52a.14.14 0 1 0 0-.27zm2.64 0h-1.5a.14.14 0 1 0 0 .27h1.5a.14.14 0 0 0 0-.27zm.24 5.92h-6v-1.36a.14.14 0 0 0-.27 0V12a.14.14 0 0 0 .14.14H8.4a.14.14 0 1 0 0-.27h0zm0-2.94H2.25a.14.14 0 0 0-.14.09h0v.73a.14.14 0 0 0 .27 0v-.55h5.9V10a.14.14 0 0 0 .27 0h0V9a.14.14 0 0 0-.13-.09zM4 9.3a1.17 1.17 0 1 0 1.17 1.17h0A1.17 1.17 0 0 0 4 9.31zm0 2.07a.9.9 0 1 1 .9-.9h0a.9.9 0 0 1-.9.9zm19.46-9.15H23a.145.145 0 1 0 0 .29h.48a.145.145 0 0 0 0-.29zm-1.34 0h-.48a.145.145 0 1 0 0 .29h.48a.145.145 0 1 0 0-.29zm-1.34 0h-.48a.145.145 0 1 0 0 .29h.48a.145.145 0 1 0 0-.29zm4 4.78v-.52a.145.145 0 1 0-.29 0V7a.145.145 0 1 0 .29 0zm-.16-3.92a.14.14 0 0 0 .08-.19 1.11 1.11 0 0 0-.33-.43.146.146 0 0 0-.18.23h0a.82.82 0 0 1 .24.32.14.14 0 0 0 .19.08h0zm-5.2-.85a1.1 1.1 0 0 0-.51.2.143.143 0 1 0 .17.23.81.81 0 0 1 .37-.15.145.145 0 1 0 0-.29h0zm11.08 10.6a.14.14 0 0 0-.14.14v.48a.145.145 0 0 0 .29 0h0V13a.14.14 0 0 0-.15-.16zm-11.88-9.7a.14.14 0 0 0-.15.14h0a.145.145 0 1 0 .29 0h0a.14.14 0 0 0-.14-.14zm5.88.66v.48a.145.145 0 1 0 .29 0V3.8a.145.145 0 1 0-.29 0zm.14 1.2a.14.14 0 0 0-.14.14h0v.48a.145.145 0 1 0 .29 0v-.48a.14.14 0 0 0-.15-.14z"/><path d="M25.15 8a.82.82 0 0 1-.27-.3.145.145 0 1 0-.26.13h0a1.11 1.11 0 0 0 .37.4.143.143 0 0 0 .17-.23h0zm5.12 4.1a1.1 1.1 0 0 0-.49-.25.143.143 0 0 0-.06.28.82.82 0 0 1 .36.18.14.14 0 0 0 .2 0h0a.14.14 0 0 0 0-.2zM30 16.72a.81.81 0 0 1-.38.12.145.145 0 0 0 0 .29h0a1.1 1.1 0 0 0 .52-.17.142.142 0 1 0-.15-.24h0zm-1.06-4.94a.82.82 0 0 1-.34-.22.142.142 0 1 0-.21.19 1.11 1.11 0 0 0 .45.3.142.142 0 0 0 .09-.27zm1.56 3.74a.14.14 0 0 0-.14.14h0V16a.78.78 0 0 1 0 .09.14.14 0 0 0 .13.16h0a.14.14 0 0 0 .16-.13h0a1.1 1.1 0 0 0 0-.12v-.37a.14.14 0 0 0-.15-.11zm0-1.34a.14.14 0 0 0-.14.14v.48a.145.145 0 0 0 .29 0v-.48a.14.14 0 0 0-.15-.14zm-2.24-3.94a.14.14 0 0 0-.14.14v.48a.145.145 0 0 0 .29 0h0v-.48a.14.14 0 0 0-.15-.14zm-.5-1.98a1.09 1.09 0 0 0-.47-.11h-.05a.145.145 0 0 0 0 .29h.05a.81.81 0 0 1 .35.08.145.145 0 1 0 .13-.26h0zm.33 1.26a.145.145 0 0 0 .29 0v-.26a1.11 1.11 0 0 0 0-.25.143.143 0 1 0-.28.06h0a.83.83 0 0 1 0 .18zm-1.7-1.36h-.48a.145.145 0 1 0 0 .29h.48a.145.145 0 1 0 0-.29zm2.33 8.68h-.48a.145.145 0 1 0 0 .29h.48a.145.145 0 0 0 0-.29z"/></g></svg>