<svg xmlns="http://www.w3.org/2000/svg" xmlns:xlink="http://www.w3.org/1999/xlink" viewBox="0 0 600 588.2"><g fill="#fff"><path d="M329.4 496.1H61.8l133.9-230.6 88.6 152.8z"/><path d="M558.3 496.1H329.4l-45.1-77.8 114.5-197.1zM324 91.5h74.7v60.3H324z"/></g><path d="M339.1 69.2v60.3h-74.7L282 99.3l-17.6-30.1zm-33.8 155.4c0 11.5-9.4 20.9-20.9 20.9s-20.9-9.4-20.9-20.9c0-11.6 9.4-20.9 20.9-20.9s20.9 9.3 20.9 20.9z" fill="#4663ad"/><g fill="#182c61"><path d="M590.6 491.6h-29.8l-37.5-64.7c24.8-39.2 39.3-85.5 39.3-135.2C562.6 151.8 448.8 38 308.9 38 169 38.1 55.2 151.9 55.2 291.7c0 50.5 15 97.4 40.6 137l-36.5 62.9H27.2c-2.4 0-4.4 2-4.4 4.4 0 2.5 2 4.4 4.4 4.4 14.1 0-51.1 0 138 0 40.9 28.2 90.3 45 143.6 45s102.6-16.7 143.5-45c12.6 0-47.8 0 138.2 0 2.4 0 4.4-2 4.4-4.4.1-2.4-1.9-4.4-4.3-4.4zm-258.6 0l-42.5-73.3 104.8-180.6v1.2c0 2.5 2 4.4 4.4 4.4 2.5 0 4.4-2 4.4-4.4v-1.3l147.4 254.1H332zM285.8 97.1l-13.7-23.5h62.6V125h-62.6l13.7-23.5c.8-1.3.8-3 0-4.4zm42.6 36.8h10.7c2.5 0 4.4-2 4.4-4.4V95.9h50.7v51.4h-65.9v-13.4zM64.1 291.7c0-135 109.8-244.8 244.8-244.8s244.8 109.8 244.8 244.8c0 46.3-13.1 89.5-35.5 126.5l-115-198.3V91.5c0-2.4-2-4.4-4.4-4.4h-55.1V69.2c0-2.4-2-4.4-4.4-4.4h-74.7c-1.6 0-3.1.8-3.8 2.2-.8 1.4-.8 3.1 0 4.4l16.3 27.9-16.3 27.9c-.8 1.4-.8 3.1 0 4.4.8 1.4 2.3 2.2 3.8 2.2h55.1v17.8c0 2.5 2 4.4 4.4 4.4h70.3v63.9l-110 189.4-84.8-146.2-.3-.3c-2-2.8-5.9-2.3-7.4.3l-91.1 156.8c-23.2-37.1-36.7-81-36.7-128.2zm127.2-9.7v1.3c0 2.5 2 4.4 4.4 4.4s4.4-2 4.4-4.4V282l121.6 209.6H69.5L191.3 282zm117.6 254.6c-46.7 0-90.3-13.3-127.5-36.1h254.8c-37.1 22.8-80.6 36.1-127.3 36.1zm97.4 17.6c-58.2 21.8-123.4 23.3-182.5 4.3-2.3-.7-4.8.5-5.6 2.9-.7 2.3.5 4.8 2.9 5.6 28.3 9.1 57.9 13.7 87.8 13.7 34.5 0 68.4-6.1 100.5-18.2 2.3-.9 3.5-3.4 2.6-5.7-.8-2.3-3.4-3.5-5.7-2.6zm-216.2-8.9a290.58 290.58 0 0 1-34.4-19.3c-2-1.3-4.8-.8-6.1 1.3-1.3 2-.8 4.8 1.3 6.1 11.4 7.4 23.3 14.1 35.5 19.9 2.2 1 4.8.1 5.9-2.1 1-2.2.1-4.9-2.2-5.9zM26.8 328.5c2.4-.3 4.2-2.5 3.9-4.9-1.2-10.5-1.8-21.2-1.8-31.9 0-77.1 30.8-149 86.7-202.4 1.8-1.7 1.8-4.5.1-6.3s-4.5-1.8-6.3-.1C51.8 138.1 20 212.2 20 291.7c0 11 .6 22 1.9 32.9.2 2.5 2.5 4.2 4.9 3.9zM258.7 16.3c2.4-.4 4-2.7 3.6-5.2-.4-2.4-2.7-4-5.2-3.6-28.3 5.1-55.6 14.5-81.1 27.8-2.2 1.1-3 3.8-1.9 6 5 9.6 19.3-13.1 84.6-25zM459.8 56c8 5.1 15.8 10.7 23.3 16.7 1.9 1.5 4.7 1.2 6.2-.7s1.2-4.7-.7-6.2c-7.7-6.1-15.7-11.9-24-17.2-2.1-1.3-4.8-.7-6.1 1.3-1.3 2.1-.7 4.8 1.3 6.1zm52 30.3c-1.7-1.7-4.5-1.7-6.3 0-1.7 1.7-1.7 4.5 0 6.3 46.3 45.7 75.4 106.3 81.9 170.6.6 5.9 9.4 5 8.8-.9-6.7-66.3-36.7-128.8-84.4-176z"/><use xlink:href="#B"/><use xlink:href="#B" y="-133"/><use xlink:href="#B" y="-44.3"/><path d="M195.7 349.8c-2.5 0-4.4 2-4.4 4.4v17.7c0 2.5 2 4.4 4.4 4.4s4.4-2 4.4-4.4v-17.7c0-2.5-1.9-4.4-4.4-4.4zm203-88.7c-2.5 0-4.4 2-4.4 4.4v17.7c0 2.5 2 4.4 4.4 4.4 2.5 0 4.4-2 4.4-4.4v-17.7c.1-2.5-1.9-4.4-4.4-4.4z"/><use xlink:href="#C"/><use xlink:href="#C" y="44.3"/><use xlink:href="#C" y="88.6"/><path d="M284.4 250c14 0 25.4-11.4 25.4-25.4s-11.4-25.4-25.4-25.4-25.4 11.4-25.4 25.4 11.4 25.4 25.4 25.4zm0-41.9a16.52 16.52 0 0 1 16.5 16.5 16.52 16.52 0 0 1-16.5 16.5 16.52 16.52 0 0 1-16.5-16.5 16.52 16.52 0 0 1 16.5-16.5zm-.1-21.2c2.5 0 4.4-2 4.4-4.4v-8.2c0-2.5-2-4.4-4.4-4.4s-4.4 2-4.4 4.4v8.2c0 2.4 2 4.4 4.4 4.4zm-32.9 11c1.7 1.7 4.5 1.7 6.3 0 1.7-1.7 1.7-4.5 0-6.3l-5.8-5.8c-1.7-1.7-4.5-1.7-6.3 0-1.7 1.7-1.7 4.5 0 6.3l5.8 5.8zM234 229h8.2c2.4 0 4.4-2 4.4-4.4 0-2.5-2-4.4-4.4-4.4H234c-2.5 0-4.4 2-4.4 4.4s2 4.4 4.4 4.4zm17.4 22.3l-5.8 5.8c-1.7 1.7-1.7 4.5 0 6.3 1.7 1.7 4.5 1.7 6.3 0l5.8-5.8c1.7-1.7 1.7-4.5 0-6.3s-4.6-1.8-6.3 0zm32.9 11c-2.4 0-4.4 2-4.4 4.4v8.2c0 2.5 2 4.4 4.4 4.4 2.5 0 4.4-2 4.4-4.4v-8.2c.1-2.4-1.9-4.4-4.4-4.4zm33-11c-1.7-1.7-4.5-1.7-6.3 0-1.7 1.7-1.7 4.5 0 6.3l5.8 5.8c1.7 1.7 4.5 1.7 6.3 0 1.7-1.7 1.7-4.5 0-6.3l-5.8-5.8zm4.7-26.7c0 2.5 2 4.4 4.4 4.4h8.2c2.4 0 4.4-2 4.4-4.4 0-2.5-2-4.4-4.4-4.4h-8.2c-2.4 0-4.4 1.9-4.4 4.4zm-4.7-26.7l5.8-5.8c1.7-1.7 1.7-4.5 0-6.3-1.7-1.7-4.5-1.7-6.3 0l-5.8 5.8c-1.7 1.7-1.7 4.5 0 6.3s4.5 1.8 6.3 0zm105.2 1.3c2.5 0 4.4-2 4.4-4.4v-30.6c0-2.5-2-4.4-4.4-4.4s-4.4 2-4.4 4.4v30.6c0 2.4 2 4.4 4.4 4.4zm0-49.1c2.5 0 4.4-2 4.4-4.4v-8.9c0-2.4-2-4.4-4.4-4.4s-4.4 2-4.4 4.4v8.9c0 2.4 2 4.4 4.4 4.4zM153 216.7c-10.2 0-19 5.4-24.1 13.4-5.1-8-13.9-13.4-24.1-13.4-2.5 0-4.4 2-4.4 4.4s2 4.4 4.4 4.4c10.8 0 19.6 8.8 19.6 19.7 0 2.5 2 4.4 4.4 4.4s4.4-2 4.4-4.4c0-10.8 8.8-19.7 19.6-19.7 2.5 0 4.4-2 4.4-4.4s-1.8-4.4-4.2-4.4zm47.5-53.7c2.5 0 4.4-2 4.4-4.4s-2-4.4-4.4-4.4c-6.4 0-12 3.1-15.7 7.7-3.7-4.7-9.3-7.7-15.7-7.7-2.5 0-4.4 2-4.4 4.4 0 2.5 2 4.4 4.4 4.4 6.2 0 11.3 5.1 11.3 11.3 0 2.5 2 4.4 4.4 4.4s4.4-2 4.4-4.4c0-6.3 5-11.3 11.3-11.3z"/></g><defs ><path id="B" d="M195.7 438.4c-2.5 0-4.4 2-4.4 4.4v17.7c0 2.5 2 4.4 4.4 4.4s4.4-2 4.4-4.4v-17.7c0-2.4-1.9-4.4-4.4-4.4z"/><path id="C" d="M398.7 305.4c-2.5 0-4.4 2-4.4 4.4v17.7c0 2.5 2 4.4 4.4 4.4 2.5 0 4.4-2 4.4-4.4v-17.7c.1-2.4-1.9-4.4-4.4-4.4z"/></defs></svg>