<svg xmlns="http://www.w3.org/2000/svg" viewBox="0 0 600 588.15"><g fill="#fff"><path d="M366.33 263.73s-64.72 75.86-144.5 75.86S77.3 263.73 77.3 263.73s64.7-75.86 144.54-75.86 144.5 75.86 144.5 75.86z"/><path d="M219.25 244.7c4.4 7.6-3.42 15.42-11 11a5.67 5.67 0 0 1-2-2c-4.4-7.6 3.42-15.42 11-11a5.67 5.67 0 0 1 2 2z"/></g><g fill="#182c61"><path d="M417.12 164.6a187.09 187.09 0 0 0-30.87-15.68 4.401 4.401 0 0 0-3.25 8.18 178.32 178.32 0 0 1 29.43 14.94 4.4 4.4 0 1 0 4.69-7.44zM439 180.77a4.401 4.401 0 0 0-5.72 6.69c35.4 30.3 57.8 72.16 62.36 119.55a4.41 4.41 0 0 0 4.38 4h.43a4.41 4.41 0 0 0 4-4.8c-4.9-51-29.26-94.5-65.45-125.44zM580.26 396a4.39 4.39 0 0 0-5.54 2.83A287.84 287.84 0 0 1 487.61 529a4.402 4.402 0 0 0 5.71 6.7 296.59 296.59 0 0 0 89.77-134.18 4.4 4.4 0 0 0-2.83-5.52zM22.28 379.1a4.4 4.4 0 0 0-8.54 2.1 295.53 295.53 0 0 0 84.83 144.87 4.4 4.4 0 1 0 6-6.41A286.77 286.77 0 0 1 22.28 379.1zM19.9 233.42a4.4 4.4 0 0 0 5.45-3A289.16 289.16 0 0 1 171.28 54.28a4.401 4.401 0 0 0-4-7.84A298 298 0 0 0 16.9 228a4.4 4.4 0 0 0 2.99 5.42zM208.53 38.5a285.75 285.75 0 0 1 61.69-13.7 4.401 4.401 0 0 0-.95-8.75 294.42 294.42 0 0 0-63.59 14.12 4.402 4.402 0 1 0 2.85 8.33zm376.94 188.64a294.26 294.26 0 0 0-58-107.38 4.4 4.4 0 0 0-6.72 5.68A285.65 285.65 0 0 1 577 229.62a4.4 4.4 0 1 0 8.44-2.48zM301.35 49.33c-144 0-261.2 117.14-261.2 261.12 0 143.36 116.84 261.2 261.2 261.2a262.32 262.32 0 0 0 124.07-31.25h0c.88-.86 137-68.67 137-230 .04-143.94-117.1-261.08-261.07-261.08zM271 560.88a251.42 251.42 0 0 0-14.15-59.93 231.89 231.89 0 0 0-47.28-77.41 143.87 143.87 0 0 1-38.23-88.91c15.77 5.64 32.66 9.37 50.5 9.37 80.87 0 145.15-74.24 147.84-77.4a4.39 4.39 0 0 0 0-5.72c-2.2-2.6-46.16-53.24-106.7-71.13a144.66 144.66 0 0 1 198.36 134.87v9.33a4.37 4.37 0 0 0 .48 2l39 76.75a7 7 0 0 1-.27 7 7.13 7.13 0 0 1-6.21 3.46h-28.6a4.4 4.4 0 0 0-4.4 4.4v30.9A21.58 21.58 0 0 1 439.79 480h-16.46a4.4 4.4 0 0 0-4.4 4.4v49.38a254.78 254.78 0 0 1-117.58 29 238.43 238.43 0 0 1-30.35-1.9zm89.37-297.15c-12.7 13.65-70.44 71.46-138.56 71.46S95.9 277.37 83.23 263.73c12.7-13.65 70.44-71.45 138.62-71.45s125.86 57.8 138.56 71.45zm-190 110.7a4.3 4.3 0 0 0-1.19.08l-7.6 2 6.07-10.5c.8 2.85 1.76 5.63 2.72 8.42zm257.36 154.44v-40h12.06a30.39 30.39 0 0 0 30.36-30.36V432h24.2a16 16 0 0 0 14.31-23.29l-38.5-75.8v-8.28a153.91 153.91 0 0 0-192.22-149.18l11.5-19.93 2 7.58a4.402 4.402 0 0 0 8.5-2.29l-4.8-17.72a4.41 4.41 0 0 0-5.42-3.23L272 144.63a4.4 4.4 0 1 0 2.28 8.5l7.6-2-13.12 22.7a4.34 4.34 0 0 0 0 4.31 154.36 154.36 0 0 0-20.13 8.12 139.11 139.11 0 0 0-26.78-2.76c-80.93 0-145.2 74.24-147.9 77.4a4.4 4.4 0 0 0 0 5.72c2 2.33 37.44 43.16 88.3 64.54a154.52 154.52 0 0 0 2.43 22.42L154 372.1l-2-7.58a4.403 4.403 0 0 0-8.5 2.3l4.8 17.72a4.34 4.34 0 0 0 1.48 2.27 4.21 4.21 0 0 0 3.94 1l17.74-4.82a4.34 4.34 0 0 0 1.66-.88 154.45 154.45 0 0 0 30.05 47.41A223.18 223.18 0 0 1 248.64 504a242.91 242.91 0 0 1 13.28 55.62c-121.8-19.06-213-125.13-213-249.18 0-139.13 113.23-252.32 252.4-252.32s252.33 113.2 252.33 252.33a252.52 252.52 0 0 1-125.93 218.41zM166.6 263.73a55.21 55.21 0 1 0 55.22-55.22 55.28 55.28 0 0 0-55.22 55.22zm101.63 0a46.41 46.41 0 1 1-46.41-46.41 46.46 46.46 0 0 1 46.41 46.41z"/><circle cx="221.82" cy="263.93" r="19.75"/><path d="M225 122.5a4.42 4.42 0 0 0-6.31-.08l-13 13a4.4 4.4 0 0 0 6.22 6.22l5.56-5.56c1.2 18.73-3.12 30.63 4.4 30.63a4.4 4.4 0 0 0 4.4-4.4v-26.2l5.57 5.54a4.402 4.402 0 1 0 6.21-6.24zM161.8 151l7.6 2a4.402 4.402 0 0 0 2.26-8.51l-17.73-4.7a4.33 4.33 0 0 0-3.44.39h0a4.36 4.36 0 0 0-2.05 2.67l-4.77 17.82a4.4 4.4 0 1 0 8.5 2.28l2-7.6 13.12 22.7a4.4 4.4 0 1 0 7.62-4.4zm69.75 234.93L226 391.5v-26.24a4.4 4.4 0 1 0-8.8 0v26.2l-5.57-5.55a4.402 4.402 0 1 0-6.21 6.24l13 12.94a4.41 4.41 0 0 0 6.32.1l13-13a4.4 4.4 0 1 0-6.22-6.22zm65.13-24.4a4.42 4.42 0 0 0-5.39 3.11l-2 7.6-13.1-22.7a4.4 4.4 0 1 0-7.62 4.4l13.1 22.7-7.6-2a4.402 4.402 0 1 0-2.26 8.51l17.87 4.74a4.5 4.5 0 0 0 5.33-3v-.07L299.8 367a4.4 4.4 0 0 0-3.11-5.45z"/></g></svg>