<svg xmlns="http://www.w3.org/2000/svg" xmlns:xlink="http://www.w3.org/1999/xlink" viewBox="0 0 32 26"><g fill="#27ae60"><circle cx="16.11" cy="13.48" r=".45"/><circle cx="13.68" cy="15.42" r=".45"/><circle cx="11.84" cy="14.13" r=".45"/><circle cx="9.87" cy="15.66" r=".45"/><circle cx="9.1" cy="14.59" r=".45"/><circle cx="6.66" cy="16.63" r=".45"/><path d="M6.42 2.6l.66-.66-.72-.72-.67.67A2.22 2.22 0 0 0 5 1.62V.67H4v.94a2.22 2.22 0 0 0-.66.27l-.64-.66-.7.72.66.66a2.22 2.22 0 0 0-.28.66h-.94v1h.92a2.22 2.22 0 0 0 .27.74L2 5.6l.72.72.64-.64A2.22 2.22 0 0 0 4 6v.9h1V6a2.22 2.22 0 0 0 .68-.28l.64.64.72-.72-.6-.64a2.22 2.22 0 0 0 .27-.68h.92v-1H6.7a2.22 2.22 0 0 0-.28-.72zm-1.9 2.47A1.28 1.28 0 1 1 5.8 3.79h0a1.28 1.28 0 0 1-1.28 1.28h0zm17.5 6.9h1.07v1.37h-1.07z"/><path d="M23.1,11.9v1.45h1.25v-2H23.1Z"/><path d="M24.35,11.36v2H25.6V10.2H24.35Z"/></g><g fill="#e1e1e5"><path d="M5.7 18.72a.91.91 0 0 0 .91.91h19.85a.91.91 0 0 0 .91-.91v-1H5.7z"/><path d="M13.84 19.63h5.24v4.66h-5.24z"/><path d="M20 24.28h-7a.92.92 0 0 0-.92.92h0v.55H21v-.55a.92.92 0 0 0-1-.92z"/></g><path d="M24.3 4.2h5.12v.77H24.3zM7.55 6.35h4v.85h-4z" fill="#4a91d6"/><g fill="#182c61"><path d="M29.8 1.44a.2.2 0 1 0 .26.12h0a.2.2 0 0 0-.26-.12zm.68.56a.201.201 0 0 0-.13.38h.07a.2.2 0 0 0 .06-.38zm.1-1.73a.2.2 0 0 0 0 .4h0a.2.2 0 0 0 0-.4zm-.5.43a.2.2 0 1 0 .06.28.2.2 0 0 0-.06-.28zm1.1.17h0a.205.205 0 0 0 .29-.29h0a.202.202 0 0 0-.28.29z"/><use xlink:href="#B"/><path d="M31.06 1.9a.2.2 0 0 0 .11.37.2.2 0 0 0 .11 0 .2.2 0 1 0-.21-.34h0zm-1 7.43a.2.2 0 1 0 .06.28.2.2 0 0 0-.06-.28zm0 .87a.201.201 0 1 0-.38.13h0a.203.203 0 1 0 .39-.11h0z"/><path d="M30.48 10.6a.201.201 0 0 0-.13.38h.07a.2.2 0 0 0 .07-.39zm.58-.07h0a.2.2 0 0 0 .11.37.2.2 0 0 0 .11 0 .2.2 0 1 0-.21-.34zm-.48-1.63a.2.2 0 0 0 0 .4h0a.2.2 0 0 0 0-.4z"/><use xlink:href="#B" y="8.62"/><path d="M31.18 9.5h0a.202.202 0 0 0 .29-.28h0a.202.202 0 0 0-.29.28h0zm-.7 10.23a.201.201 0 0 0-.13.38h.07a.2.2 0 0 0 .07-.39zm-.4-1.27a.2.2 0 1 0 .06.28.2.2 0 0 0-.06-.28zm-.27.74a.2.2 0 1 0 .26.12h0a.2.2 0 0 0-.26-.12zm1.38-.58a.202.202 0 1 0 .29-.28h0a.202.202 0 0 0-.29.28zm-.12 1.04h0a.2.2 0 0 0 .11.37.2.2 0 0 0 .11 0 .2.2 0 1 0-.21-.34h0zM30.58 18a.2.2 0 0 0 0 .4h0a.2.2 0 1 0 0-.4h0z"/><use xlink:href="#B" y="17.76"/><path d="M25.54 24.38a.2.2 0 1 0 .26.12.2.2 0 0 0-.26-.12zm1.36-.58h0a.205.205 0 0 0 .29-.29h0a.202.202 0 1 0-.29.28h0z"/><path d="M25.8,23.64a.2.2,0,1,0,.06.28.2.2,0,0,0-.06-.28Z"/><use xlink:href="#B" x="-5.3" y="21.96"/><path d="M26.2 24.9a.201.201 0 0 0-.13.38h.07a.2.2 0 0 0 .07-.39zm.6-.06a.2.2 0 0 0 .11.37.2.2 0 0 0 .11 0 .202.202 0 1 0-.22-.34h0zm.52-.67a.2.2 0 1 0 0 .4h0a.2.2 0 0 0 0-.4zM20.4 21.6a.2.2 0 0 0-.12.26h0a.2.2 0 1 0 .12-.26h0z"/><path d="M20.66 20.86a.2.2 0 1 0 .06.28.2.2 0 0 0-.06-.28zm1.1.14h0a.202.202 0 0 0 .28-.29h0a.202.202 0 1 0-.28.29zm-.6-.57a.2.2 0 0 0 0 .4h0a.2.2 0 0 0 0-.4h0zm-.1 1.7a.201.201 0 0 0-.13.38H21a.2.2 0 0 0 .07-.39zm.58-.07a.2.2 0 0 0 .11.37.2.2 0 0 0 .11 0 .202.202 0 1 0-.22-.34h0zm.53-.66a.2.2 0 1 0 0 .4h0a.2.2 0 0 0 0-.4zm-10.73-.76a.2.2 0 1 0 .06.28.2.2 0 0 0-.06-.28zm-.25.73a.2.2 0 0 0-.12.26h0a.2.2 0 1 0 .12-.26zm1.35-.57h0a.202.202 0 1 0 .29-.28h0a.202.202 0 1 0-.28.29z"/><use xlink:href="#B" x="-19.6" y="18.96"/><path d="M12.44 21.84a.2.2 0 0 0 .11.37.2.2 0 0 0 .11 0 .2.2 0 1 0-.21-.34zm-.58.06a.201.201 0 0 0-.13.38h.07a.2.2 0 0 0 .07-.39zm1.14-.73a.2.2 0 0 0 0 .4h0a.2.2 0 0 0 0-.4zM2.62 23.42a.2.2 0 1 0 .06.28.2.2 0 0 0-.06-.28zm-.26.73a.2.2 0 0 0 .07.39h.07a.201.201 0 0 0-.13-.38zm1.37-.57A.2.2 0 0 0 4 23.3h0a.202.202 0 1 0-.28.29zm-.13 1.04a.2.2 0 0 0 .11.37.2.2 0 0 0 .11 0 .2.2 0 1 0-.21-.34zm.54-.62a.2.2 0 0 0 0 .4h0a.2.2 0 0 0 0-.4zM3 24.7a.201.201 0 0 0-.13.38H3a.2.2 0 0 0 0-.38zm.13-1.7a.2.2 0 0 0 0 .4h0a.2.2 0 1 0 0-.4h0zM3 15.64a.2.2 0 1 0 .06.28.2.2 0 0 0-.06-.28zm1.15.16h0a.205.205 0 0 0 .29-.29h0a.202.202 0 1 0-.29.28h0z"/><path d="M2.8 16.37a.2.2 0 1 0 .21.13h0a.2.2 0 0 0-.21-.13zm.66.53a.201.201 0 0 0-.13.38h.07a.2.2 0 0 0 .07-.39zm1.1-.73a.2.2 0 0 0 0 .4h0a.2.2 0 0 0 0-.4zm-.56.67a.2.2 0 0 0 .11.37.2.2 0 0 0 .11 0 .215.215 0 1 0-.22-.37h0z"/><use xlink:href="#B" x="-28.05" y="13.96"/><path d="M1.4 9.56a.2.2 0 1 0 .06.28.2.2 0 0 0-.06-.28z"/><use xlink:href="#B" x="-28.7" y="8.86"/><path d="M2.5 9.7a.202.202 0 0 0 .29-.28h0a.202.202 0 0 0-.29.28zm-1.37.6a.2.2 0 0 0-.12.26H1a.2.2 0 1 0 .12-.26h0zm.67.52a.201.201 0 0 0-.13.38h.07a.2.2 0 0 0 .07-.39zm.58-.06a.2.2 0 0 0 .11.37.2.2 0 0 0 .11 0 .202.202 0 1 0-.22-.34zM1.9 9.12a.2.2 0 0 0 0 .4h0a.2.2 0 0 0 0-.4zm6.8-7.37a.201.201 0 0 0-.13.38h.07a.2.2 0 0 0 .07-.39zM8 1.22a.2.2 0 0 0 .07.39h.07A.207.207 0 0 0 8 1.22zM9.4.64h0a.202.202 0 0 0 .29-.28h0a.202.202 0 1 0-.29.28h0z"/><path d="M8.28.5a.2.2 0 1 0 .06.28.2.2 0 0 0-.06-.28zM8.8.05a.2.2 0 0 0 0 .4h0a.2.2 0 0 0 0-.4h0zm1 .95a.2.2 0 1 0 0 .4h0a.2.2 0 0 0 0-.4zm-.53.7a.2.2 0 0 0 .11.37.2.2 0 0 0 .11 0 .2.2 0 1 0-.21-.34h0z"/><use xlink:href="#C"/><path d="M26.43 1.7h-1a.15.15 0 0 0 0 .3h1a.15.15 0 0 0 0-.3h0zM25 20.87a.15.15 0 0 0-.15.15v1a.15.15 0 0 0 .3 0V21a.15.15 0 0 0-.15-.13z"/><path d="M25.45,21.36h-1a.15.15,0,0,0,0,.3h1a.15.15,0,0,0,0-.3Z"/><use xlink:href="#C" x="3.96" y="21.8"/><path d="M30.4 23.46h-1a.15.15 0 0 0 0 .3h1a.15.15 0 0 0 0-.3h0zm.3-9.56a.15.15 0 0 0-.15.15v1a.15.15 0 0 0 .3 0V14a.15.15 0 0 0-.15-.11z"/><path d="M31.2 14.4h-1a.15.15 0 0 0 0 .3h1a.15.15 0 0 0 0-.3zM3.67 11.88a.15.15 0 0 0-.15.15v1a.15.15 0 0 0 .3 0V12a.15.15 0 0 0-.15-.12z"/><path d="M4.16,12.37h-1a.15.15,0,0,0,0,.3h1a.15.15,0,0,0,0-.3Z"/><use xlink:href="#C" x="-23.18" y="17.9"/><path d="M3.26 19.6h-1a.15.15 0 0 0 0 .3h1a.15.15 0 0 0 0-.3zM8 23a.15.15 0 0 0-.15.15v1a.15.15 0 0 0 .3 0v-1A.15.15 0 0 0 8 23z"/><path d="M8.54,23.46h-1a.15.15,0,0,0,0,.3h1a.15.15,0,0,0,0-.3h0Z"/><use xlink:href="#C" x="4.76" y="4.07"/><path d="M31.2 5.76h-1a.15.15 0 0 0 0 .3h1a.15.15 0 0 0 0-.3h0zM9.2 25.6H8.06a.15.15 0 0 0 0 .3H9.2a.15.15 0 0 0 0-.3h0zm3.36 0h-2.3a.15.15 0 0 0 0 .3h2.3a.15.15 0 0 0 0-.3h0zm10.92 0h-2.86a.15.15 0 0 0 0 .3h2.86a.15.15 0 0 0 0-.3h0zM12.5 4.66H6.6a.15.15 0 0 0 0 .3h5.9a.15.15 0 0 0 0-.3h0zM27.36 7.9a.15.15 0 0 0-.15.15v10.5a.94.94 0 0 1-.94.94H6.78a.94.94 0 0 1-.94-.94V5.9a.15.15 0 0 0-.3 0 .15.15 0 0 0 0 0v12.63a1.24 1.24 0 0 0 1.24 1.24h19.5a1.24 1.24 0 0 0 1.24-1.24h0V8a.15.15 0 0 0-.15-.11z"/><path d="M24.24 4.66h-1.38a.15.15 0 0 0 0 .3h1.4a.15.15 0 0 0 0-.3h0zm3.08 12.96H5.74a.15.15 0 0 0 0 .3h21.58a.15.15 0 0 0 0-.3zm-7.16 6.5H12.9a1 1 0 0 0-1 1v.67a.15.15 0 0 0 .15.15H21a.15.15 0 0 0 .15-.15v-.67a1 1 0 0 0-.99-1zm.66 1.48h-8.58v-.52a.66.66 0 0 1 .66-.66h7.27a.66.66 0 0 1 .66.66z"/><path d="M14 19.58a.15.15 0 0 0-.15.15v4.55a.15.15 0 0 0 .3 0v-4.55a.15.15 0 0 0-.15-.15zm5.08 0a.15.15 0 0 0-.15.15v4.55a.15.15 0 0 0 .3 0v-4.55a.15.15 0 0 0-.15-.15zm-4.28.52a.15.15 0 0 0-.15.15v.52a.15.15 0 0 0 .3 0v-.52a.15.15 0 0 0-.15-.15zm1.47 3.34h-1.32V21.5a.15.15 0 0 0-.3 0v2.1a.15.15 0 0 0 .15.15h1.47a.15.15 0 0 0 0-.3zm-.57-9.7L14 15a.153.153 0 0 0 .16.26h0l1.7-1.26a.153.153 0 0 0-.16-.26zM13.3 15l-.93-.67a.15.15 0 0 0-.18.24l.93.67a.15.15 0 0 0 .18-.24zm-1.94-.65l-1.14 1a.151.151 0 0 0 .17.25h0l1.14-1a.15.15 0 0 0-.19-.23zM9.52 15a.152.152 0 1 0-.27.14h0l.16.25a.152.152 0 1 0 .27-.14h0z"/><path d="M8.6 14.78l-1.66 1.38a.15.15 0 0 0 .19.23L8.8 15a.151.151 0 0 0-.17-.25h0zm7.5-1.9a.6.6 0 1 0 .6.6h0a.61.61 0 0 0-.6-.6zm0 .9a.3.3 0 1 1 .3-.3h0a.3.3 0 0 1-.3.29zm-2.42 1.02a.6.6 0 1 0 .6.6h0a.61.61 0 0 0-.6-.6zm0 .9a.3.3 0 1 1 .3-.3h0a.3.3 0 0 1-.3.3zm-1.84-2.18a.6.6 0 1 0 .6.6h0a.61.61 0 0 0-.6-.6zm0 .9a.3.3 0 1 1 .3-.3h0a.3.3 0 0 1-.3.3z"/><path d="M9.87 15.05a.6.6 0 1 0 .6.6h0a.61.61 0 0 0-.6-.6zm0 .9a.3.3 0 1 1 .3-.3h0a.3.3 0 0 1-.3.34zM9.1 14a.6.6 0 1 0 .6.6h0a.61.61 0 0 0-.6-.6zm0 .9a.3.3 0 1 1 .3-.3h0a.3.3 0 0 1-.3.28zM6.66 16a.6.6 0 1 0 .6.6h0a.61.61 0 0 0-.6-.6zm0 .9a.3.3 0 1 1 .3-.3H7a.3.3 0 0 1-.34.32zm14.9-15.4h-10.1a.15.15 0 0 0 0 .3h10.1a1 1 0 0 1 1 1v8a.15.15 0 0 0 .3 0v-8a1.3 1.3 0 0 0-1.3-1.3z"/><path d="M22.7 14.1a.15.15 0 0 0-.15.15v2.38h-9.8V2.8a1.3 1.3 0 1 0-2.6 0v.9a.15.15 0 0 0 .15.15h2.15v12.9a.15.15 0 0 0 .15.15h10.1a.15.15 0 0 0 .15-.15v-2.53a.15.15 0 0 0-.16-.15zM12.47 3.57h-2V2.8a1 1 0 0 1 2 0zm5.23 1.08a3.06 3.06 0 1 0 3.06 3.06 3.06 3.06 0 0 0-3.06-3.06zm0 5.82a2.76 2.76 0 1 1 2.76-2.76 2.76 2.76 0 0 1-2.76 2.77z"/><path d="M19.2 5a.15.15 0 0 0-.21.1l-1.4 2.48-2.72.85a.15.15 0 1 0 .07.3h0l2.77-.87a.15.15 0 0 0 .09-.07l1.44-2.53a.15.15 0 0 0-.03-.26z"/><path d="M17.8 7.6a.152.152 0 1 0-.23.2h0l2.15 2a.172.172 0 1 0 .28-.2h0zM24.3 6h-3.13a.15.15 0 0 0-.1 0l-1.7 1.6a.15.15 0 0 0 .2.22l1.65-1.5h3.07a.15.15 0 0 0 0-.3zm-8.6 1.12l-1.88 1.3h-2.25a.15.15 0 0 0 0 .3H14l1.9-1.33a.151.151 0 0 0-.17-.25zm5.58 4.45h-1.54l-1.6-2a.15.15 0 0 0-.23.19l1.65 2a.15.15 0 0 0 .12.06h1.6a.15.15 0 0 0 0-.3h0z"/><path d="M26.48 10.74h-.78a.15.15 0 0 0 0 .3h.66V14h-4.9v-3h2.77a.15.15 0 0 0 0-.3h-3a.15.15 0 0 0-.15.15v3.24a.15.15 0 0 0 .15.15h5.2a.15.15 0 0 0 .15-.15v-3.2a.15.15 0 0 0-.15-.15zM29.43 4H24.3a.15.15 0 0 0-.15.15V7.9a.15.15 0 0 0 .15.15h5.12a.15.15 0 0 0 .15-.15V4.18a.15.15 0 0 0-.15-.18zm-.15 3.73h-4.82v-3.4h4.82zM11.57 6.2h-4a.15.15 0 0 0-.15.15V9.7a.15.15 0 0 0 .15.15h4a.15.15 0 0 0 .15-.15V6.34a.15.15 0 0 0-.15-.15zm-.15 3.35H7.7v-3h3.7z"/><path d="M11.47,7H7.56a.15.15,0,0,0,0,.3h3.94a.15.15,0,0,0,0-.3h0Z"/><path d="M10.52 6.2a.15.15 0 0 0-.15.15V7a.15.15 0 0 0 .3 0v-.66a.15.15 0 0 0-.15-.15zm-.85 1.48h-1.6A.163.163 0 0 0 8 8h1.68a.15.15 0 0 0 0-.3h0zm1.43 0h-.83a.15.15 0 0 0 0 .3h.83a.15.15 0 0 0 0-.3h0zm-2.2.6h-.85a.15.15 0 0 0 0 .3h.88a.15.15 0 0 0 0-.3z"/><path d="M11.1 8.28H9.5a.15.15 0 0 0 0 .3h1.62a.15.15 0 0 0 0-.3h0zm-1.43.62h-1.6a.15.15 0 0 0 0 .3H9.7a.15.15 0 0 0 0-.3h0zm1.43 0h-.83a.15.15 0 0 0 0 .3h.83a.15.15 0 0 0 0-.3h0zM29.37 5H24.3a.15.15 0 0 0 0 .3h5.1a.15.15 0 0 0 0-.3h0z"/><path d="M28.14 4a.15.15 0 0 0-.15.15v.9a.15.15 0 0 0 .3 0V4.2a.15.15 0 0 0-.15-.18zm-1.3 1a.15.15 0 0 0-.15.15V7.9a.15.15 0 0 0 .3 0 .15.15 0 0 0 0 0V5.1a.15.15 0 0 0-.15-.12zm-.52.52h-1.55a.15.15 0 0 0 0 .3h1.58a.15.15 0 0 0 0-.3zm-.6.56h-.95a.15.15 0 0 0 0 .3h1a.15.15 0 0 0 0-.3h0zm2.64-.56h-1a.15.15 0 0 0 0 .3h1a.15.15 0 0 0 0-.3zm.56.56h-1.7a.15.15 0 0 0 0 .3h1.72a.15.15 0 0 0 0-.3h0zm-5.82 5.75H22a.15.15 0 0 0-.15.15v1.37a.15.15 0 0 0 .15.15h1.1a.15.15 0 0 0 .15-.15V12a.15.15 0 0 0-.15-.15zm-.15 1.37h-.77v-1.07h.77z"/><path d="M24.35 11.2H23.1a.15.15 0 0 0-.15.15v.54a.15.15 0 1 0 .3 0 .15.15 0 0 0 0 0v-.4h.95v1.7h-1.1a.15.15 0 0 0 0 .3h1.25a.15.15 0 0 0 .15-.15v-2a.15.15 0 0 0-.15-.15z"/><path d="M25.6 10h-1.25a.15.15 0 0 0-.15.15v1.16a.15.15 0 1 0 .3 0 .15.15 0 0 0 0 0v-1h.95v2.9h-1.1a.15.15 0 0 0 0 .3h1.25a.15.15 0 0 0 .15-.15V10.2a.15.15 0 0 0-.15-.2zm-3.97 5.5H17.4a.15.15 0 0 0 0 .3h4.26a.15.15 0 0 0 0-.3h0zm-1.9-1.1H17.4a.15.15 0 0 0 0 .3h2.34a.15.15 0 0 0 0-.3zm-1.1-1.08H17.4a.15.15 0 0 0 0 .3h1.25a.15.15 0 0 0 0-.3zM4.53 2.36A1.43 1.43 0 1 0 6 3.79a1.43 1.43 0 0 0-1.47-1.43zm0 2.56a1.13 1.13 0 1 1 1.13-1.13 1.13 1.13 0 0 1-1.13 1.13zm3.1-1.82h-.8a2.36 2.36 0 0 0-.21-.49L7.2 2a.15.15 0 0 0 0-.21l-.72-.72a.15.15 0 0 0-.21 0l-.58.58a2.36 2.36 0 0 0-.48-.2V.67A.15.15 0 0 0 5 .52H4a.15.15 0 0 0-.15.15v.83a2.36 2.36 0 0 0-.48.2l-.58-.58a.15.15 0 0 0-.21 0l-.72.72a.15.15 0 0 0 0 .21l.58.58a2.36 2.36 0 0 0-.21.49h-.8a.15.15 0 0 0-.15.15v1a.15.15 0 0 0 .15.15h.8a2.36 2.36 0 0 0 .2.5l-.57.57a.15.15 0 0 0 0 .21l.72.72a.15.15 0 0 0 .21 0l.56-.56a2.36 2.36 0 0 0 .51.21v.8A.15.15 0 0 0 4 7h1a.15.15 0 0 0 .15-.15v-.77a2.36 2.36 0 0 0 .51-.21l.56.56a.15.15 0 0 0 .21 0l.72-.72a.15.15 0 0 0 0-.21l-.57-.57a2.36 2.36 0 0 0 .2-.5h.8a.15.15 0 0 0 .15-.15v-1a.15.15 0 0 0-.1-.17zm-.15 1H6.7a.15.15 0 0 0-.15.12 2.06 2.06 0 0 1-.26.63.15.15 0 0 0 0 .19l.54.54-.5.5-.54-.54a.15.15 0 0 0-.19 0 2.06 2.06 0 0 1-.61.27.15.15 0 0 0-.11.18v.76h-.7V6a.15.15 0 0 0-.12-.15 2.06 2.06 0 0 1-.63-.27.15.15 0 0 0-.19 0l-.54.54-.5-.5.54-.54a.15.15 0 0 0 0-.19 2.06 2.06 0 0 1-.26-.63.15.15 0 0 0-.15-.12H1.6v-.72h.78a.15.15 0 0 0 .15-.12 2.07 2.07 0 0 1 .26-.62.15.15 0 0 0 0-.19l-.58-.55.5-.5.56.56a.15.15 0 0 0 .19 0 2.06 2.06 0 0 1 .61-.25.15.15 0 0 0 .12-.15V.82h.7v.8a.15.15 0 0 0 .11.16 2.06 2.06 0 0 1 .62.23.15.15 0 0 0 .19 0l.56-.56.5.5-.56.56a.15.15 0 0 0 0 .19 2.07 2.07 0 0 1 .26.62.15.15 0 0 0 .15.12h.78zm20.88 4.8a.15.15 0 0 0-.15.15v1.85a.15.15 0 0 0 .3 0V9a.15.15 0 0 0-.15-.11zm0 3.3a.15.15 0 0 0-.15.15v5.16a.15.15 0 0 0 .3 0v-5.16a.15.15 0 0 0-.15-.15z"/></g><defs ><path id="B" d="M31.6 1.24a.2.2 0 0 0 0 .4h0a.2.2 0 0 0 0-.4z"/><path id="C" d="M25.94 1.2a.15.15 0 0 0-.15.15v1a.15.15 0 0 0 .3 0v-1a.15.15 0 0 0-.15-.15z"/></defs></svg>